# xmcd CD database file
#
# Track frame offsets:
#	150
#	10446
#	24144
#	36973
#	49152
#	60950
#	70842
#	84875
#	98560
#	111489
#	123042
#	135946
#	148610
#	160823
#	174302
#	186866
#	199242
#	212523
#	225946
#	237067
#	251259
#	261184
#	274575
#	288359
#	302550
#
# Disc length: 4219 seconds
#
# Revision: 0
# Processed by: cddbd v1.5.1PL2 Copyright (c) Steve Scherf et al.
# Submitted via: CDex 1.51
#
DISCID=40107919
DTITLE=Various Artist -  Downhome Blues Classics, Chicago, Disc 2
DYEAR=2005
DGENRE=Blues
TTITLE0=J.B. and His Hawks - Combination Boogie
TTITLE1=Tampa Red - So Crazy About You Baby
TTITLE2=Willie Nix - All By Myself
TTITLE3=Tony Hollins - Fishing Blues
TTITLE4=Johnny Williams - Worried Man Blues
TTITLE5=Little Willie Foster - Four Day Jump
TTITLE6=J.B. and His Hawks - Things Are So Slow
TTITLE7=Lazy Bill Lucas - She Got Me Walkin'
TTITLE8=Floyd Jones - Big World
TTITLE9=Lee Brown - My Little Girl Blues
TTITLE10=Willie Nix - No More Love
TTITLE11=Sunnyland Slim - Devil Is A Busy Man
TTITLE12=Homesick James - The Woman I Love
TTITLE13=Floyd Jones - Any Old Lonesome Day
TTITLE14=Morris Pejoe - Can't Get Along
TTITLE15=J.B. Lenoir - Deep In Debt
TTITLE16=Floyd Jones - Early Morning
TTITLE17=Leroy Foster - Louella
TTITLE18=J.B.& His Hawks - Pet Cream Man
TTITLE19=Homesick James - Farmer's Blues
TTITLE20=Floyd Jones - Skinny Mama
TTITLE21=Jimmy Eager - Should Have Loved Her More
TTITLE22=Muddy Waters - Mad Love
TTITLE23=Floyd Jones - Ain't Times Hard
TTITLE24=Homesick James - Lonesome Ole Train
EXTD=YEAR: 2005
EXTT0=
EXTT1=
EXTT2=
EXTT3=
EXTT4=
EXTT5=
EXTT6=
EXTT7=
EXTT8=
EXTT9=
EXTT10=
EXTT11=
EXTT12=
EXTT13=
EXTT14=
EXTT15=
EXTT16=
EXTT17=
EXTT18=
EXTT19=
EXTT20=
EXTT21=
EXTT22=
EXTT23=
EXTT24=
PLAYORDER=
